<svg width="459" height="253" viewBox="0 0 459 253" fill="none" xmlns="http://www.w3.org/2000/svg">
<path d="M147.069 227.315L102.656 152.237" stroke="white"/>
<path d="M247.104 212.216L306.874 158.948" stroke="white"/>
<path d="M169.816 69.6099C169.816 75.3614 165.204 80.015 159.524 80.015C153.845 80.015 149.232 75.3614 149.232 69.6099C149.232 63.8583 153.845 59.2047 159.524 59.2047C165.204 59.2047 169.816 63.8583 169.816 69.6099Z" stroke="white"/>
<ellipse cx="159.522" cy="69.6099" rx="8.30151" ry="8.38857" fill="white"/>
<path d="M158.697 80.0956L153.301 226.057" stroke="white"/>
<path d="M108.387 142.59C108.387 148.342 103.774 152.995 98.0947 152.995C92.4155 152.995 87.8027 148.342 87.8027 142.59C87.8027 136.839 92.4155 132.185 98.0947 132.185C103.774 132.185 108.387 136.839 108.387 142.59Z" stroke="white"/>
<ellipse cx="98.0925" cy="142.59" rx="8.30151" ry="8.38857" fill="white"/>
<path d="M87.7179 140.493L8.02344 106.519" stroke="white"/>
<path d="M162.342 236.542C162.342 242.294 157.729 246.947 152.05 246.947C146.371 246.947 141.758 242.294 141.758 236.542C141.758 230.791 146.371 226.137 152.05 226.137C157.729 226.137 162.342 230.791 162.342 236.542Z" stroke="white"/>
<ellipse cx="152.048" cy="236.542" rx="8.30151" ry="8.38857" fill="white"/>
<path d="M247.019 213.474C247.019 216.214 244.822 218.426 242.123 218.426C239.423 218.426 237.227 216.214 237.227 213.474C237.227 210.734 239.423 208.521 242.123 208.521C244.822 208.521 247.019 210.734 247.019 213.474Z" stroke="white"/>
<ellipse cx="242.124" cy="213.473" rx="3.73568" ry="3.77434" fill="white"/>
<path d="M388.972 247.028C388.972 249.768 386.775 251.981 384.076 251.981C381.377 251.981 379.18 249.768 379.18 247.028C379.18 244.288 381.377 242.075 384.076 242.075C386.775 242.075 388.972 244.288 388.972 247.028Z" stroke="white"/>
<ellipse cx="384.077" cy="247.027" rx="3.73568" ry="3.77434" fill="white"/>
<path d="M402.255 154.753C402.255 156.566 400.801 158.028 399.019 158.028C397.237 158.028 395.783 156.566 395.783 154.753C395.783 152.94 397.237 151.479 399.019 151.479C400.801 151.479 402.255 152.94 402.255 154.753Z" stroke="white"/>
<ellipse cx="399.024" cy="154.753" rx="2.07494" ry="2.09685" fill="white"/>
<path d="M401.094 151.818L442.601 88.9037" stroke="white"/>
<path d="M69.3639 72.5452C69.3639 74.3584 67.9104 75.8196 66.1283 75.8196C64.3461 75.8196 62.8926 74.3584 62.8926 72.5452C62.8926 70.732 64.3461 69.2709 66.1283 69.2709C67.9104 69.2709 69.3639 70.732 69.3639 72.5452Z" stroke="white"/>
<ellipse cx="66.1296" cy="72.5455" rx="2.07494" ry="2.09685" fill="white"/>
<path d="M7.93815 105.261C7.93815 107.074 6.48465 108.535 4.70248 108.535C2.9203 108.535 1.4668 107.074 1.4668 105.261C1.4668 103.448 2.9203 101.986 4.70248 101.986C6.48465 101.986 7.93815 103.448 7.93815 105.261Z" stroke="white"/>
<ellipse cx="4.70385" cy="105.261" rx="2.07494" ry="2.09685" fill="white"/>
<path d="M312.6 157.27C312.6 159.083 311.147 160.544 309.365 160.544C307.582 160.544 306.129 159.083 306.129 157.27C306.129 155.457 307.582 153.996 309.365 153.996C311.147 153.996 312.6 155.457 312.6 157.27Z" stroke="white"/>
<ellipse cx="309.366" cy="157.27" rx="2.07494" ry="2.09685" fill="white"/>
<path d="M359.089 49.8962C359.089 51.7094 357.635 53.1705 355.853 53.1705C354.071 53.1705 352.617 51.7094 352.617 49.8962C352.617 48.0829 354.071 46.6218 355.853 46.6218C357.635 46.6218 359.089 48.0829 359.089 49.8962Z" stroke="white"/>
<ellipse cx="355.854" cy="49.8964" rx="2.07494" ry="2.09685" fill="white"/>
<path d="M170.645 4.59782C170.645 6.41106 169.192 7.87216 167.41 7.87216C165.627 7.87216 164.174 6.41106 164.174 4.59782C164.174 2.78459 165.627 1.32349 167.41 1.32349C169.192 1.32349 170.645 2.78459 170.645 4.59782Z" stroke="white"/>
<ellipse cx="167.411" cy="4.59808" rx="2.07494" ry="2.09685" fill="white"/>
<path d="M281.055 117.424C281.055 123.176 276.442 127.83 270.763 127.83C265.083 127.83 260.471 123.176 260.471 117.424C260.471 111.673 265.083 107.019 270.763 107.019C276.442 107.019 281.055 111.673 281.055 117.424Z" stroke="white"/>
<ellipse cx="270.76" cy="117.425" rx="8.30151" ry="8.38857" fill="white"/>
<path d="M457.877 79.676C457.877 85.4275 453.264 90.0812 447.585 90.0812C441.906 90.0812 437.293 85.4275 437.293 79.676C437.293 73.9245 441.906 69.2709 447.585 69.2709C453.264 69.2709 457.877 73.9245 457.877 79.676Z" stroke="white"/>
<ellipse cx="447.583" cy="79.6759" rx="8.30151" ry="8.38857" fill="white"/>
<path d="M261.215 113.23L169.068 74.6428" stroke="white"/>
<path d="M153.296 77.9984L105.562 135.041" stroke="white"/>
<path d="M268.274 127.91L244.199 208.86" stroke="white"/>
<path d="M310.611 153.915L354.194 52.8326" stroke="white"/>
<path d="M358.35 52.4133L397.367 151.398" stroke="white"/>
<path d="M398.609 158.109L385.326 241.995" stroke="white"/>
<path d="M7.61133 103.164L63.2314 73.8041" stroke="white"/>
<path d="M69.4492 70.8681L164.501 6.69556" stroke="white"/>
<path d="M67.793 75.4818L93.9427 132.524" stroke="white"/>
<path d="M160.77 231.09L262.878 124.555" stroke="white"/>
<path d="M441.36 71.2876L359.59 49.4773" stroke="white"/>
<path d="M306.877 155.173L277.406 125.813" stroke="white"/>
</svg>
