<svg width="25" height="17" viewBox="0 0 25 17" fill="none" xmlns="http://www.w3.org/2000/svg">
  <path d="M0.0170776 0.377825C0.327622 0.360886 0.564765 0.332656 0.807554 0.332656C5.95694 0.332656 11.1007 0.321363 16.2501 0.332656C21.3091 0.349594 25.0243 4.40925 24.6291 9.45701C24.3468 13.0875 21.3712 16.289 17.7689 16.7971C16.9671 16.9101 16.1541 16.9722 15.3467 16.9778C10.5135 16.9948 5.68592 16.9722 0.852723 17.0004C0.158234 17.006 -0.00550673 16.8084 0.000139527 16.1252C0.0283708 11.1396 0.0170776 6.1483 0.0170776 1.15701C0.0170776 0.925512 0.0170776 0.682722 0.0170776 0.377825ZM21.7269 7.43C21.6874 7.18721 21.6818 7.01218 21.6366 6.84843C21.2414 5.53286 20.4057 4.52782 19.2708 3.83333C16.2105 1.94748 12.1735 3.45504 11.0555 6.86537C10.9144 7.30014 10.7167 7.45258 10.2481 7.44694C8.32837 7.41871 6.40864 7.43565 4.49456 7.43565C2.81762 7.43565 2.8515 7.43564 2.81762 9.09564C2.80068 9.7619 3.06041 9.88047 3.64762 9.87483C5.86095 9.8466 8.07428 9.87483 10.282 9.85789C10.6998 9.85224 10.8974 9.9934 11.0781 10.3886C11.4169 11.1057 11.7839 11.851 12.2977 12.4495C14.5392 15.0355 18.8078 14.8266 20.7953 12.0656C21.247 11.4388 21.71 10.7952 21.6705 9.86354C21.3599 9.86354 21.0946 9.88612 20.8292 9.85789C20.0331 9.78449 19.4515 9.91435 18.9377 10.7218C18.1077 12.0317 16.3178 12.314 14.8159 11.6026C13.5342 10.9984 12.7833 9.38925 13.1107 7.96639C13.4439 6.51531 14.3642 5.65143 15.7984 5.35782C17.0631 5.0981 18.469 5.77565 19.2256 6.92748C19.3612 7.13075 19.5701 7.39612 19.7733 7.41306C20.4001 7.46952 21.0324 7.43 21.7269 7.43ZM9.73993 5.63449C9.73993 4.81578 9.73993 4.04225 9.73993 3.20095C7.5266 3.20095 5.36973 3.19531 3.21286 3.21789C3.08864 3.21789 2.86844 3.45503 2.86279 3.59054C2.82891 4.2568 2.84585 4.92871 2.84585 5.63449C5.17776 5.63449 7.42497 5.63449 9.73993 5.63449ZM5.23422 11.6308C4.52844 11.6308 3.86218 11.6082 3.20157 11.6478C3.07735 11.6534 2.86844 11.8849 2.86279 12.0204C2.82891 12.6867 2.84585 13.3529 2.84585 14.0305C3.70408 14.0305 4.47762 14.0305 5.23986 14.0305C5.23422 13.2231 5.23422 12.4665 5.23422 11.6308ZM17.6616 8.61571C17.6616 7.87605 17.1365 7.33401 16.4025 7.31707C15.6403 7.30014 15.0192 7.89864 15.0248 8.64959C15.0305 9.36667 15.6346 9.95388 16.3686 9.95388C17.1196 9.94823 17.6616 9.38925 17.6616 8.61571Z" fill="white"/>
</svg>
